<svg width="98" height="32" viewBox="0 0 98 32" fill="none" xmlns="http://www.w3.org/2000/svg">
<path d="M0.0987047 26V0.799998H13.0227V5.12H5.0307V11.132H12.1587V15.308H5.0307V21.824H13.1667V26H0.0987047ZM25.7702 26H19.1102C17.9582 25.064 17.0462 23.828 16.3742 22.292C15.7022 20.756 15.3662 19.052 15.3662 17.18V7.604H20.1542V17.036C20.1542 19.148 20.5502 20.876 21.3422 22.22H23.5382C24.3302 20.804 24.7262 19.088 24.7262 17.072V7.604H29.5142V17C29.5142 18.896 29.1782 20.636 28.5062 22.22C27.8342 23.804 26.9222 25.064 25.7702 26ZM40.33 11.384H37.63C37.27 11.816 36.97 12.416 36.73 13.184C36.514 13.952 36.406 14.696 36.406 15.416H41.554C41.602 14.696 41.506 13.952 41.266 13.184C41.026 12.392 40.714 11.792 40.33 11.384ZM45.226 22.22V26H36.082C34.402 24.872 33.214 23.48 32.518 21.824C31.846 20.144 31.51 18.452 31.51 16.748C31.51 12.812 32.998 9.764 35.974 7.604H41.806C43.414 8.78 44.506 10.028 45.082 11.348C45.658 12.668 45.946 14 45.946 15.344C45.946 16.688 45.838 17.84 45.622 18.8H36.658C36.73 19.352 36.934 19.988 37.27 20.708C37.63 21.404 38.014 21.908 38.422 22.22H45.226ZM56.0537 7.604H59.8697C60.9257 8.948 61.6457 10.292 62.0297 11.636C62.4137 12.98 62.6057 14.66 62.6057 16.676V26H57.8177V16.316C57.8177 14.036 57.5057 12.392 56.8817 11.384H52.8497V26H48.0617V7.604H51.8057L52.4537 8.9C52.9817 8.42 53.4737 8.084 53.9297 7.892C54.4097 7.7 55.1177 7.604 56.0537 7.604ZM65.787 17.972V11.384H63.303V7.604H65.787V2.6H70.575V7.604H73.527V11.384H70.575V19.124C70.575 20.588 70.827 21.62 71.331 22.22H73.527V26H68.415C67.143 24.824 66.375 23.552 66.111 22.184C65.895 21.032 65.787 19.628 65.787 17.972ZM80.3738 0.799998V26H75.6218V0.799998H80.3738ZM83.0537 15.884V7.604H87.8417V15.92C87.8417 18.008 88.2617 19.748 89.1017 21.14H91.2257C92.0177 19.772 92.4137 18.032 92.4137 15.92V7.604H97.2017V15.632C97.2017 17.432 96.9617 19.016 96.4817 20.384C96.0257 21.752 95.2697 23.3 94.2137 25.028L91.8017 28.952C91.3697 29.696 90.9137 30.248 90.4337 30.608C89.9537 30.968 89.3297 31.232 88.5617 31.4H82.8737V27.62H86.7617C87.2657 27.476 87.6857 27.224 88.0217 26.864C88.3577 26.504 88.7057 25.988 89.0657 25.316L89.2817 24.92H86.7977C85.6457 23.984 84.7337 22.724 84.0617 21.14C83.3897 19.532 83.0537 17.78 83.0537 15.884Z" fill="#5669FF"/>
</svg>
